<svg height="511pt" viewBox="-34 0 511 511.99942" width="511pt" xmlns="http://www.w3.org/2000/svg"><path d="m378.226562 180.972656c-.144531.496094-.292968.988282-.445312 1.484375-5.296875 17.324219-30.929688 12.164063-29.417969-5.886719 1.410157-16.859374.082031-34.234374-4.332031-51.554687-18.898438-74.160156-88.035156-122.246094-161.773438-117.140625-6.550781.453125-10.523437 7.40625-7.570312 13.269531 5.015625 9.949219 9.039062 20.59375 11.902344 31.832031 9.324218 36.589844 4.878906 73.453126-10.085938 105.117188-18.097656 38.285156-72.464844 38.25-90.703125.03125-3.601562-7.550781-6.726562-15.367188-9.335937-23.417969-2.300782-7.09375-11.671875-8.566406-16.09375-2.558593-23.550782 31.996093-37.46875 71.527343-37.46875 114.308593 0 105.6875 84.945312 191.546875 190.292968 193.007813 101 1.402344 241.546876-101.835938 182.410157-259.101563-3.109375-8.261719-14.890625-7.859375-17.378907.609375zm0 0" fill="#fab03c"/><path d="m338.191406 394.066406c30.394532-43.851562 42.636719-102.210937 16.816406-170.871094-3.105468-8.261718-14.882812-7.863281-17.375.609376-.144531.492187-.296874.984374-.445312 1.476562-5.296875 17.328125-30.929688 12.164062-29.421875-5.882812 1.414063-16.859376.085937-34.234376-4.328125-51.558594-14.945312-58.652344-61.316406-100.984375-116.539062-113.597656-.101563-.417969-.207032-.84375-.3125-1.261719-2.863282-11.246094-6.878907-21.886719-11.902344-31.835938-2.945313-5.863281 1.023437-12.820312 7.574218-13.265625 73.734376-5.105468 142.878907 42.972656 161.78125 117.132813 4.40625 17.324219 5.742188 34.699219 4.320313 51.558593-1.507813 18.050782 24.125 23.214844 29.421875 5.882813.148438-.492187.300781-.984375.441406-1.476563 2.492188-8.472656 14.273438-8.871093 17.378906-.609374 35.464844 94.289062-.871093 169.164062-57.410156 213.699218zm0 0" fill="#fd8f3e"/><path d="m280.566406 444.152344h27.761719v60.347656h-27.761719zm0 0" fill="#cf8671"/><path d="m294.445312 444.152344h13.882813v60.347656h-13.882813zm0 0" fill="#be7560"/><path d="m287.285156 278.304688-60.566406 166.898437c-1.800781 4.96875 1.878906 10.214844 7.160156 10.214844h121.132813c5.285156 0 8.964843-5.246094 7.160156-10.214844l-60.566406-166.898437c-2.425781-6.695313-11.890625-6.695313-14.320313 0zm0 0" fill="#fc4830"/><path d="m355.015625 455.414062h-11.957031c-.070313-.355468-.175782-.714843-.308594-1.074218l-59.671875-164.441406 4.207031-11.597657c2.429688-6.6875 11.898438-6.6875 14.320313 0l60.570312 166.898438c1.800781 4.96875-1.878906 10.214843-7.160156 10.214843zm0 0" fill="#e81610"/><path d="m129.730469 444.152344h27.761719v60.347656h-27.761719zm0 0" fill="#cf8671"/><path d="m143.609375 444.152344h13.882813v60.347656h-13.882813zm0 0" fill="#be7560"/><path d="m136.449219 278.304688-60.566407 166.898437c-1.804687 4.96875 1.875 10.214844 7.160157 10.214844h121.132812c5.285157 0 8.964844-5.246094 7.160157-10.214844l-60.566407-166.898437c-2.425781-6.695313-11.890625-6.695313-14.320312 0zm0 0" fill="#fc4830"/><path d="m204.179688 455.414062h-11.960938c-.070312-.355468-.175781-.714843-.304688-1.074218l-59.671874-164.441406 4.203124-11.597657c2.429688-6.6875 11.902344-6.6875 14.324219 0l60.570313 166.898438c1.796875 4.96875-1.882813 10.214843-7.160156 10.214843zm0 0" fill="#e81610"/><path d="m203.179688 417.742188h31.699218v86.757812h-31.699218zm0 0" fill="#cf8671"/><path d="m219.027344 417.742188h15.851562v86.757812h-15.851562zm0 0" fill="#be7560"/><path d="m210.851562 228.386719-69.148437 190.554687c-2.058594 5.671875 2.140625 11.664063 8.175781 11.664063h138.300782c6.035156 0 10.234374-5.992188 8.175781-11.664063l-69.152344-190.554687c-2.769531-7.640625-13.578125-7.640625-16.351563 0zm0 0" fill="#ff756e"/><path d="m437.425781 271.171875c-4.097656-.527344-7.863281 2.390625-8.382812 6.5-3.871094 30.632813-14.976563 59.363281-32.992188 85.394531-2.359375 3.40625-1.511719 8.078125 1.894531 10.433594 1.304688.902344 2.789063 1.335938 4.261719 1.335938 2.378907 0 4.71875-1.128907 6.175781-3.230469 19.402344-28.03125 31.363282-59 35.542969-92.050781.519531-4.109376-2.390625-7.863282-6.5-8.382813zm0 0"/><path d="m364.3125 119.847656c.863281 3.394532 3.914062 5.652344 7.261719 5.652344.609375 0 1.234375-.078125 1.855469-.234375 4.015624-1.023437 6.4375-5.105469 5.414062-9.121094-7.902344-31.007812-23.53125-59.757812-45.207031-83.144531-2.816407-3.039062-7.5625-3.21875-10.601563-.402344-3.035156 2.816406-3.214844 7.5625-.398437 10.601563 19.976562 21.550781 34.386719 48.058593 41.675781 76.648437zm0 0"/><path d="m147.597656 152.726562c1.035156.488282 2.125.722657 3.199219.722657 2.8125 0 5.503906-1.589844 6.785156-4.296875 13.375-28.296875 16.476563-60.617188 8.730469-91.003906-1.023438-4.015626-5.105469-6.4375-9.121094-5.417969-4.011718 1.023437-6.4375 5.105469-5.414062 9.121093 6.886718 27.015626 4.128906 55.742188-7.753906 80.890626-1.773438 3.742187-.171876 8.214843 3.574218 9.984374zm0 0"/><path d="m38.183594 365.648438c-9.503906-14.117188-17.292969-29.347657-23.140625-45.265626-1.429688-3.886718-5.738281-5.882812-9.628907-4.453124-3.886718 1.429687-5.882812 5.738281-4.453124 9.625 6.265624 17.050781 14.601562 33.359374 24.78125 48.472656 1.449218 2.152344 3.816406 3.3125 6.226562 3.3125 1.441406 0 2.898438-.414063 4.183594-1.277344 3.433594-2.316406 4.34375-6.976562 2.03125-10.414062zm0 0"/><path d="m51.761719 383.6875c-2.660157-3.175781-7.394531-3.589844-10.5625-.929688-3.175781 2.664063-3.589844 7.394532-.929688 10.566407 1.625 1.933593 3.300781 3.871093 4.984375 5.75 1.480469 1.652343 3.53125 2.496093 5.589844 2.496093 1.78125 0 3.570312-.632812 5-1.914062 3.085938-2.765625 3.347656-7.507812.582031-10.59375-1.578125-1.757812-3.144531-3.566406-4.664062-5.375zm0 0"/><path d="m23.144531 234.132812c4.132813.429688 7.804688-2.578124 8.222657-6.699218 3.339843-32.816406 15.460937-64.230469 35.042968-90.839844.511719-.691406 1.171875-.746094 1.636719-.667969.648437.101563 1.082031.472657 1.285156 1.097657 2.6875 8.285156 5.953125 16.472656 9.703125 24.332031 9.699219 20.328125 29.679688 32.945312 52.167969 32.945312h.109375c22.457031-.042969 42.367188-12.6875 51.96875-33 16.195312-34.265625 19.953125-73.390625 10.578125-110.175781-2.949219-11.5625-7.144531-22.789062-12.472656-33.355469-.332031-.660156-.164063-1.214843.035156-1.566406.203125-.355469.601563-.792969 1.351563-.84375 71.492187-4.972656 136.261718 41.945313 153.992187 111.511719 4.109375 16.136718 5.5 32.644531 4.121094 49.074218-1.003907 11.992188 6.535156 21.953126 18.335937 24.222657 11.660156 2.242187 22.246094-4.132813 25.730469-15.507813.160156-.527344.320313-1.058594.472656-1.574218.082031-.285157.335938-1.152344 1.511719-1.195313 1.1875-.035156 1.539062.828125 1.648438 1.113281 15.644531 41.601563 17.785156 81.425782 6.367187 118.363282-1.226563 3.957031.992187 8.160156 4.949219 9.382812.738281.226562 1.484375.335938 2.21875.335938 3.199218 0 6.167968-2.066407 7.160156-5.289063 12.425781-40.191406 10.1875-83.28125-6.65625-128.070313-2.574219-6.847656-8.945312-11.078124-16.238281-10.824218-7.273438.269531-13.296875 4.960937-15.355469 11.96875-.136719.464844-.273438.925781-.417969 1.394531-1.828125 5.976563-7.007812 5.472656-8.550781 5.175781-1.136719-.21875-6.777344-1.644531-6.226562-8.242187 1.519531-18.09375-.007813-36.273438-4.535157-54.03125-19.519531-76.589844-90.824219-128.222657-169.558593-122.773438-5.597657.386719-10.585938 3.523438-13.355469 8.386719-2.765625 4.859375-2.914063 10.742188-.394531 15.738281 4.839843 9.601563 8.648437 19.796875 11.332031 30.3125 8.511719 33.40625 5.101562 68.941407-9.605469 100.058594-7.207031 15.253906-21.574219 24.378906-38.433594 24.410156-.027344 0-.054687 0-.082031 0-16.648437 0-31.449219-9.347656-38.632813-24.40625-3.46875-7.265625-6.488281-14.835937-8.976562-22.5-1.929688-5.957031-6.96875-10.277343-13.152344-11.277343-6.210937-1.011719-12.382812 1.519531-16.113281 6.589843-21.171875 28.765625-34.273437 62.726563-37.886719 98.207031-.417968 4.121094 2.582032 7.800782 6.703125 8.21875zm0 0"/><path d="m195.421875 167.035156c-11.863281 25.097656-36.46875 40.6875-64.214844 40.6875-4.140625 0-7.5 3.359375-7.5 7.503906 0 4.140626 3.359375 7.496094 7.503907 7.496094 33.605468 0 63.40625-18.882812 77.769531-49.277344 1.773437-3.746093.171875-8.214843-3.574219-9.984374-3.742188-1.773438-8.214844-.171876-9.984375 3.574218zm0 0"/><path d="m351.207031 392.996094c18.441407-16.070313 33.386719-34.496094 44.414063-54.8125 1.976562-3.640625.628906-8.195313-3.011719-10.171875-3.640625-1.976563-8.195313-.625-10.171875 3.015625-9.296875 17.125-21.640625 32.828125-36.742188 46.773437l-9.894531-27.257812c-1.410156-3.894531-5.710937-5.90625-9.605469-4.492188-3.894531 1.414063-5.90625 5.714844-4.492187 9.609375l33.4375 92.148438c-.003906.03125-.046875.09375-.125.109375h-112.636719v-9.8125h45.800782c5.277343 0 10.234374-2.578125 13.265624-6.898438 3.027344-4.320312 3.761719-9.859375 1.960938-14.824219l-29.125-80.257812 20.054688-55.261719c.011718-.035156.023437-.058593.027343-.070312.0625-.015625.148438-.019531.148438-.035157 0 0 .019531.027344.046875.105469l15.683594 43.21875c1.414062 3.890625 5.714843 5.90625 9.609374 4.488281 3.894532-1.410156 5.90625-5.714843 4.492188-9.605468l-15.6875-43.21875c-2.191406-6.050782-7.769531-9.960938-14.210938-9.960938-6.4375 0-12.015624 3.910156-14.207031 9.960938l-13.9375 38.394531-32.046875-88.3125c-2.351562-6.484375-8.328125-10.671875-15.226562-10.671875-6.894532 0-12.875 4.1875-15.226563 10.671875l-32.046875 88.3125-13.933594-38.394531c-2.195312-6.050782-7.773437-9.960938-14.210937-9.960938s-12.015625 3.910156-14.210937 9.960938l-38.957032 107.34375c-16.199218-14.871094-29.5-32.285156-39.582031-51.878906-11.621094-22.589844-18.359375-46.9375-20.035156-72.371094-.273438-4.132813-3.847657-7.273438-7.976563-6.992188-4.132812.273438-7.265625 3.84375-6.992187 7.976563 1.8125 27.496093 9.101562 53.824219 21.667969 78.25 11.839843 23.019531 27.792968 43.25 47.414062 60.1875l-16.105469 44.378906c-1.679687 4.632813-.996093 9.804687 1.832031 13.835937 2.824219 4.035157 7.453126 6.441407 12.378907 6.441407h39.183593v41.582031c0 4.140625 3.355469 7.5 7.5 7.5h27.765626c4.140624 0 7.5-3.359375 7.5-7.5v-41.582031h30.6875v41.582031c0 4.140625 3.355468 7.5 7.5 7.5h31.695312c4.144531 0 7.5-3.359375 7.5-7.5v-41.582031h30.425781l.265625 41.628906c.023438 4.125 3.375 7.453125 7.5 7.453125h27.761719c1.996094 0 3.910156-.796875 5.320313-2.214844 1.40625-1.417968 2.191406-3.335937 2.179687-5.332031l-.261719-41.535156h39.445313c4.925781 0 9.554687-2.40625 12.378906-6.441407 2.828125-4.03125 3.515625-9.203124 1.832031-13.832031zm-133.304687-162.050782c.085937-.238281.285156-.789062 1.125-.789062s1.042968.550781 1.128906.789062l69.148438 190.554688c.144531.390625.09375.757812-.144532 1.097656-.238281.339844-.566406.511719-.980468.511719h-138.300782c-.414062 0-.746094-.171875-.980468-.511719-.238282-.339844-.289063-.707031-.148438-1.097656zm-67.910156 266.054688h-12.765626v-34.082031h12.765626zm-67-49.085938c-.027344-.011718-.070313-.074218-.058594-.152343l60.5625-166.898438c.011718-.035156.023437-.058593.027344-.070312.0625-.015625.148437-.019531.148437-.035157 0 0 .019531.027344.046875.105469l20.054688 55.265625-29.125 80.257813c-1.796876 4.960937-1.066407 10.5 1.964843 14.820312 3.027344 4.320313 7.988281 6.902344 13.261719 6.902344h45.804688v9.8125zm127.6875 49.085938v-58.894531h16.699218v58.894531zm90.101562 0h-12.761719l-.21875-34.082031h12.765625zm0 0"/><path d="m75.371094 288.015625c-4.144532 0-7.453125 3.359375-7.453125 7.5 0 4.144531 3.40625 7.5 7.550781 7.5s7.5-3.355469 7.5-7.5c0-4.140625-3.355469-7.5-7.5-7.5zm0 0"/><path d="m93.417969 294.824219c-.027344 0-.050781 0-.078125 0-4.105469 0-7.40625 3.308593-7.449219 7.425781-.039063 4.140625 3.332031 7.53125 7.472656 7.574219h.078125c4.105469 0 7.457032-3.308594 7.5-7.425781.039063-4.140626-3.285156-7.53125-7.425781-7.574219zm0 0"/><path d="m276.695312 66.128906c-4.144531 0-7.453124 3.359375-7.453124 7.5 0 4.144532 3.40625 7.5 7.550781 7.5 4.140625 0 7.5-3.355468 7.5-7.5 0-4.140625-3.359375-7.5-7.5-7.5zm0 0"/><path d="m393.050781 112.859375c4.144531 0 7.5-3.359375 7.5-7.5 0-4.144531-3.355469-7.5-7.5-7.5h-.097656c-4.144531 0-7.449219 3.355469-7.449219 7.5 0 4.140625 3.40625 7.5 7.546875 7.5zm0 0"/><path d="m125.527344 167.972656h.078125c4.105469 0 7.457031-3.3125 7.496093-7.425781.042969-4.144531-3.28125-7.535156-7.421874-7.574219l-.101563-.003906c-.023437 0-.050781 0-.074219 0-4.105468 0-7.40625 3.3125-7.449218 7.425781-.039063 4.140625 3.332031 7.535157 7.472656 7.578125zm0 0"/><path d="m109.902344 155.59375h.074218c4.109376 0 7.457032-3.308594 7.5-7.425781.039063-4.140625-3.285156-7.53125-7.425781-7.574219h-.097656c-.027344 0-.050781 0-.078125 0-4.105469 0-7.40625 3.308594-7.449219 7.425781-.039062 4.140625 3.332031 7.53125 7.476563 7.574219zm0 0"/></svg>